<svg width="16" height="16" viewBox="0 0 22 26" fill="none" xmlns="http://www.w3.org/2000/svg">
    <path
        d="M15.8333 2.5H4.16667C3.24619 2.5 2.5 3.24619 2.5 4.16667V15.8333C2.5 16.7538 3.24619 17.5 4.16667 17.5H15.8333C16.7538 17.5 17.5 16.7538 17.5 15.8333V4.16667C17.5 3.24619 16.7538 2.5 15.8333 2.5Z"
        stroke="white" stroke-width="1.25" stroke-linecap="round" stroke-linejoin="round" />
    <path
        d="M10 10.8333C11.3807 10.8333 12.5 9.71404 12.5 8.33333C12.5 6.95262 11.3807 5.83333 10 5.83333C8.61929 5.83333 7.5 6.95262 7.5 8.33333C7.5 9.71404 8.61929 10.8333 10 10.8333Z"
        stroke="white" stroke-width="1.25" stroke-linecap="round" stroke-linejoin="round" />
    <path
        d="M5.83331 17.5V15.8333C5.83331 15.3913 6.00891 14.9674 6.32147 14.6548C6.63403 14.3423 7.05795 14.1667 7.49998 14.1667H12.5C12.942 14.1667 13.3659 14.3423 13.6785 14.6548C13.9911 14.9674 14.1666 15.3913 14.1666 15.8333V17.5"
        stroke="white" stroke-width="1.25" stroke-linecap="round" stroke-linejoin="round" />
</svg>