<svg width="22" height="26" viewBox="0 0 22 26" fill="none" xmlns="http://www.w3.org/2000/svg">
<path d="M6.48612 17.5139C5.23728 17.5139 4.17275 17.0738 3.29254 16.1936C2.41233 15.3134 1.97223 14.2488 1.97223 13C1.97223 11.7512 2.41233 10.6866 3.29254 9.80642C4.17275 8.92621 5.23728 8.48611 6.48612 8.48611H9.64584C9.84144 8.48611 10.0032 8.55005 10.1311 8.67795C10.259 8.80584 10.3229 8.96759 10.3229 9.16319C10.3229 9.35879 10.259 9.52054 10.1311 9.64843C10.0032 9.77633 9.84144 9.84027 9.64584 9.84027H6.48612C5.61343 9.84027 4.86864 10.1487 4.25174 10.7656C3.63484 11.3825 3.3264 12.1273 3.3264 13C3.3264 13.8727 3.63484 14.6175 4.25174 15.2344C4.86864 15.8513 5.61343 16.1597 6.48612 16.1597H9.64584C9.84144 16.1597 10.0032 16.2237 10.1311 16.3516C10.259 16.4795 10.3229 16.6412 10.3229 16.8368C10.3229 17.0324 10.259 17.1942 10.1311 17.322C10.0032 17.4499 9.84144 17.5139 9.64584 17.5139H6.48612ZM8.17883 13.6771C7.98322 13.6771 7.82148 13.6131 7.69358 13.4852C7.56569 13.3573 7.50174 13.1956 7.50174 13C7.50174 12.8044 7.56569 12.6426 7.69358 12.5148C7.82148 12.3869 7.98322 12.3229 8.17883 12.3229H13.8212C14.0168 12.3229 14.1785 12.3869 14.3064 12.5148C14.4343 12.6426 14.4983 12.8044 14.4983 13C14.4983 13.1956 14.4343 13.3573 14.3064 13.4852C14.1785 13.6131 14.0168 13.6771 13.8212 13.6771H8.17883ZM12.3542 17.5139C12.1586 17.5139 11.9968 17.4499 11.8689 17.322C11.741 17.1942 11.6771 17.0324 11.6771 16.8368C11.6771 16.6412 11.741 16.4795 11.8689 16.3516C11.9968 16.2237 12.1586 16.1597 12.3542 16.1597H15.5139C16.3866 16.1597 17.1314 15.8513 17.7483 15.2344C18.3652 14.6175 18.6736 13.8727 18.6736 13C18.6736 12.1273 18.3652 11.3825 17.7483 10.7656C17.1314 10.1487 16.3866 9.84027 15.5139 9.84027H12.3542C12.1586 9.84027 11.9968 9.77633 11.8689 9.64843C11.741 9.52054 11.6771 9.35879 11.6771 9.16319C11.6771 8.96759 11.741 8.80584 11.8689 8.67795C11.9968 8.55005 12.1586 8.48611 12.3542 8.48611H15.5139C16.7627 8.48611 17.8273 8.92621 18.7075 9.80642C19.5877 10.6866 20.0278 11.7512 20.0278 13C20.0278 14.2488 19.5877 15.3134 18.7075 16.1936C17.8273 17.0738 16.7627 17.5139 15.5139 17.5139H12.3542Z" fill="white"/>
</svg>
