<svg width="16" height="16" viewBox="0 0 22 26" fill="none" xmlns="http://www.w3.org/2000/svg">
    <path
        d="M9.63501 2.72167C9.67098 2.65634 9.72382 2.60186 9.78802 2.56392C9.85222 2.52598 9.92543 2.50597 10 2.50597C10.0746 2.50597 10.1478 2.52598 10.212 2.56392C10.2762 2.60186 10.329 2.65634 10.365 2.72167L12.825 7.39167C12.8837 7.49981 12.9656 7.59361 13.0648 7.66635C13.164 7.73909 13.2781 7.78896 13.3988 7.81239C13.5196 7.83581 13.6441 7.8322 13.7633 7.80182C13.8825 7.77144 13.9935 7.71504 14.0883 7.63667L17.6525 4.58334C17.7209 4.52769 17.8052 4.49518 17.8933 4.4905C17.9814 4.48582 18.0687 4.50921 18.1426 4.55729C18.2165 4.60538 18.2733 4.67568 18.3047 4.75808C18.3362 4.84048 18.3406 4.93073 18.3175 5.01584L15.9558 13.5542C15.9076 13.7289 15.8038 13.8831 15.66 13.9935C15.5163 14.1039 15.3404 14.1644 15.1592 14.1658H4.84167C4.66029 14.1646 4.48427 14.1042 4.34033 13.9938C4.1964 13.8834 4.09242 13.729 4.04417 13.5542L1.68334 5.01667C1.66022 4.93156 1.66469 4.84131 1.69613 4.75891C1.72756 4.67651 1.78433 4.60621 1.85826 4.55812C1.93219 4.51004 2.01947 4.48666 2.10754 4.49134C2.19561 4.49602 2.27992 4.52852 2.34834 4.58417L5.91167 7.6375C6.00651 7.71587 6.11751 7.77227 6.23673 7.80265C6.35594 7.83303 6.4804 7.83664 6.60117 7.81322C6.72195 7.7898 6.83604 7.73993 6.93525 7.66719C7.03447 7.59444 7.11634 7.50064 7.17501 7.3925L9.63501 2.72167Z"
        stroke="white" stroke-width="1.25" stroke-linecap="round" stroke-linejoin="round" />
    <path d="M4.16669 17.5H15.8334" stroke="white" stroke-width="1.25" stroke-linecap="round" stroke-linejoin="round" />
</svg>