<svg width="16" height="16" viewBox="0 0 22 26" fill="none" xmlns="http://www.w3.org/2000/svg">
    <path
        d="M12.5 5V15C12.5 15.4945 12.6466 15.9778 12.9213 16.3889C13.196 16.8 13.5865 17.1205 14.0433 17.3097C14.5001 17.4989 15.0028 17.5484 15.4877 17.452C15.9727 17.3555 16.4181 17.1174 16.7678 16.7678C17.1174 16.4181 17.3555 15.9727 17.452 15.4877C17.5484 15.0028 17.4989 14.5001 17.3097 14.0433C17.1205 13.5865 16.8 13.196 16.3889 12.9213C15.9778 12.6466 15.4945 12.5 15 12.5H5C4.50555 12.5 4.0222 12.6466 3.61108 12.9213C3.19995 13.196 2.87952 13.5865 2.6903 14.0433C2.50108 14.5001 2.45157 15.0028 2.54804 15.4877C2.6445 15.9727 2.8826 16.4181 3.23223 16.7678C3.58187 17.1174 4.02732 17.3555 4.51228 17.452C4.99723 17.5484 5.49989 17.4989 5.95671 17.3097C6.41352 17.1205 6.80397 16.8 7.07867 16.3889C7.35338 15.9778 7.5 15.4945 7.5 15V5C7.5 4.50555 7.35338 4.0222 7.07867 3.61108C6.80397 3.19995 6.41352 2.87952 5.95671 2.6903C5.49989 2.50108 4.99723 2.45157 4.51228 2.54804C4.02732 2.6445 3.58187 2.8826 3.23223 3.23223C2.8826 3.58187 2.6445 4.02732 2.54804 4.51228C2.45157 4.99723 2.50108 5.49989 2.6903 5.95671C2.87952 6.41352 3.19995 6.80397 3.61108 7.07867C4.0222 7.35338 4.50555 7.5 5 7.5H15C15.4945 7.5 15.9778 7.35338 16.3889 7.07867C16.8 6.80397 17.1205 6.41352 17.3097 5.95671C17.4989 5.49989 17.5484 4.99723 17.452 4.51228C17.3555 4.02732 17.1174 3.58187 16.7678 3.23223C16.4181 2.8826 15.9727 2.6445 15.4877 2.54804C15.0028 2.45157 14.5001 2.50108 14.0433 2.6903C13.5865 2.87952 13.196 3.19995 12.9213 3.61108C12.6466 4.0222 12.5 4.50555 12.5 5Z"
        stroke="white" stroke-width="1.25" stroke-linecap="round" stroke-linejoin="round" />
</svg>