<svg width="16" height="16" viewBox="0 0 22 26" fill="none" xmlns="http://www.w3.org/2000/svg">
    <path
        d="M3.75 6.66666L12.5667 2.44999C12.6666 2.40216 12.7751 2.37473 12.8858 2.36932C12.9964 2.36392 13.1071 2.38064 13.2112 2.4185C13.3154 2.45637 13.4109 2.51463 13.4922 2.58986C13.5736 2.66509 13.6391 2.7558 13.685 2.85666L15.4167 6.66666"
        stroke="white" stroke-width="1.25" stroke-linecap="round" stroke-linejoin="round" />
    <path d="M5 8.33334V6.66667" stroke="white" stroke-width="1.25" stroke-linecap="round" stroke-linejoin="round" />
    <path d="M5 11.6667V12.5" stroke="white" stroke-width="1.25" stroke-linecap="round" stroke-linejoin="round" />
    <path d="M5 15.8333V17.5" stroke="white" stroke-width="1.25" stroke-linecap="round" stroke-linejoin="round" />
    <path
        d="M16.6667 6.66667H3.33335C2.41288 6.66667 1.66669 7.41286 1.66669 8.33334V15.8333C1.66669 16.7538 2.41288 17.5 3.33335 17.5H16.6667C17.5872 17.5 18.3334 16.7538 18.3334 15.8333V8.33334C18.3334 7.41286 17.5872 6.66667 16.6667 6.66667Z"
        stroke="white" stroke-width="1.25" stroke-linecap="round" stroke-linejoin="round" />
</svg>